<svg width="680" height="680" viewBox="0 0 680 680" role="img" xmlns="http://www.w3.org/2000/svg">
  <title>Viet H Tran - Cool & Funny Avatar</title>
  <desc>A cool and funny illustrated avatar of Viet as a hacker engineer with sunglasses</desc>
  <defs>
    <clipPath id="cc">
      <circle cx="340" cy="340" r="300"/>
    </clipPath>
  </defs>

  <!-- Background -->
  <circle cx="340" cy="340" r="320" fill="#060a0f"/>
  <circle cx="340" cy="340" r="300" fill="#0b1118"/>

  <!-- Neon ring -->
  <circle cx="340" cy="340" r="310" fill="none" stroke="#1dffa0" stroke-width="4" opacity="0.9"/>
  <circle cx="340" cy="340" r="316" fill="none" stroke="#1dffa0" stroke-width="1" opacity="0.3"/>

  <!-- Rotating dashes outer ring -->
  <circle cx="340" cy="340" r="296" fill="none" stroke="#00cfff" stroke-width="1.5" stroke-dasharray="8 12" opacity="0.4"/>

  <!-- Grid bg -->
  <g clip-path="url(#cc)" opacity="0.06">
    <line x1="40" y1="180" x2="640" y2="180" stroke="#1dffa0" stroke-width="1"/>
    <line x1="40" y1="240" x2="640" y2="240" stroke="#1dffa0" stroke-width="1"/>
    <line x1="40" y1="300" x2="640" y2="300" stroke="#1dffa0" stroke-width="1"/>
    <line x1="40" y1="360" x2="640" y2="360" stroke="#1dffa0" stroke-width="1"/>
    <line x1="40" y1="420" x2="640" y2="420" stroke="#1dffa0" stroke-width="1"/>
    <line x1="40" y1="480" x2="640" y2="480" stroke="#1dffa0" stroke-width="1"/>
    <line x1="180" y1="40" x2="180" y2="640" stroke="#1dffa0" stroke-width="1"/>
    <line x1="240" y1="40" x2="240" y2="640" stroke="#1dffa0" stroke-width="1"/>
    <line x1="300" y1="40" x2="300" y2="640" stroke="#1dffa0" stroke-width="1"/>
    <line x1="360" y1="40" x2="360" y2="640" stroke="#1dffa0" stroke-width="1"/>
    <line x1="420" y1="40" x2="420" y2="640" stroke="#1dffa0" stroke-width="1"/>
    <line x1="480" y1="40" x2="480" y2="640" stroke="#1dffa0" stroke-width="1"/>
  </g>

  <!-- Floating code snippets background -->
  <text x="62" y="200" font-family="monospace" font-size="11" fill="#00cfff" opacity="0.25">const viet = () =&gt; </text>
  <text x="62" y="218" font-family="monospace" font-size="11" fill="#1dffa0" opacity="0.22">  return awesome;</text>
  <text x="430" y="460" font-family="monospace" font-size="11" fill="#7c6dfa" opacity="0.25">git push --force</text>
  <text x="80" y="460" font-family="monospace" font-size="11" fill="#f5a623" opacity="0.22">npm start</text>
  <text x="460" y="200" font-family="monospace" font-size="11" fill="#1dffa0" opacity="0.2">404: sleep</text>
  <text x="460" y="218" font-family="monospace" font-size="11" fill="#00cfff" opacity="0.2">not found</text>

  <!-- Body - hoodie -->
  <ellipse cx="340" cy="610" rx="210" ry="130" fill="#162030"/>
  <ellipse cx="340" cy="590" rx="195" ry="115" fill="#1a2a40"/>
  <path d="M285 560 Q340 555 395 560 L400 610 Q340 618 280 610 Z" fill="#162030"/>
  <line x1="330" y1="530" x2="318" y2="590" stroke="#0d1520" stroke-width="4" stroke-linecap="round"/>
  <line x1="350" y1="530" x2="362" y2="590" stroke="#0d1520" stroke-width="4" stroke-linecap="round"/>
  <circle cx="316" cy="594" r="5" fill="#00cfff" opacity="0.7"/>
  <circle cx="364" cy="594" r="5" fill="#00cfff" opacity="0.7"/>
  <text x="340" y="582" text-anchor="middle" font-family="monospace" font-size="11" fill="#00cfff" opacity="0.6">&lt;/DEV&gt;</text>

  <!-- Neck -->
  <rect x="316" y="455" width="48" height="72" rx="12" fill="#c8956a"/>

  <!-- Head -->
  <ellipse cx="340" cy="330" rx="112" ry="128" fill="#c8956a"/>

  <!-- Ears -->
  <ellipse cx="226" cy="328" rx="18" ry="24" fill="#c8956a"/>
  <ellipse cx="227" cy="328" rx="10" ry="16" fill="#b57d52"/>
  <ellipse cx="454" cy="328" rx="18" ry="24" fill="#c8956a"/>
  <ellipse cx="453" cy="328" rx="10" ry="16" fill="#b57d52"/>

  <!-- Earring -->
  <circle cx="218" cy="338" r="5" fill="#1dffa0"/>
  <circle cx="218" cy="338" r="3" fill="#0d2a1a"/>

  <!-- Hair -->
  <ellipse cx="340" cy="218" rx="118" ry="45" fill="#1a0f08"/>
  <path d="M240 220 Q225 185 235 165 Q250 195 260 210 Z" fill="#1a0f08"/>
  <path d="M280 210 Q275 170 290 155 Q300 185 305 208 Z" fill="#221208"/>
  <path d="M320 205 Q320 162 338 148 Q345 178 342 205 Z" fill="#1a0f08"/>
  <path d="M360 206 Q368 163 385 152 Q388 180 382 206 Z" fill="#221208"/>
  <path d="M395 210 Q408 175 422 168 Q420 196 415 212 Z" fill="#1a0f08"/>
  <path d="M430 218 Q445 188 455 185 Q450 208 440 222 Z" fill="#1a0f08"/>
  <ellipse cx="236" cy="270" rx="22" ry="55" fill="#1a0f08"/>
  <ellipse cx="444" cy="270" rx="22" ry="55" fill="#1a0f08"/>

  <!-- Eyebrows -->
  <path d="M280 282 Q302 270 324 278" stroke="#2a1508" stroke-width="6" fill="none" stroke-linecap="round"/>
  <path d="M356 278 Q378 270 400 282" stroke="#2a1508" stroke-width="6" fill="none" stroke-linecap="round"/>

  <!-- Sunglasses -->
  <rect x="323" y="298" width="34" height="6" rx="3" fill="#0a0a0a"/>
  <rect x="256" y="288" width="72" height="46" rx="10" fill="#0a0a0a"/>
  <rect x="352" y="288" width="72" height="46" rx="10" fill="#0a0a0a"/>
  <rect x="260" y="292" width="64" height="38" rx="7" fill="#003d2a"/>
  <rect x="356" y="292" width="64" height="38" rx="7" fill="#003d2a"/>
  <path d="M266 296 Q278 294 285 300" stroke="#1dffa0" stroke-width="1.5" fill="none" opacity="0.7" stroke-linecap="round"/>
  <path d="M268 304 Q272 302 276 305" stroke="#1dffa0" stroke-width="1" fill="none" opacity="0.4" stroke-linecap="round"/>
  <path d="M362 296 Q374 294 381 300" stroke="#1dffa0" stroke-width="1.5" fill="none" opacity="0.7" stroke-linecap="round"/>
  <path d="M364 304 Q368 302 372 305" stroke="#1dffa0" stroke-width="1" fill="none" opacity="0.4" stroke-linecap="round"/>
  <text x="293" y="315" text-anchor="middle" font-family="monospace" font-size="8" fill="#1dffa0" opacity="0.5">&lt;/&gt;</text>
  <text x="389" y="315" text-anchor="middle" font-family="monospace" font-size="8" fill="#1dffa0" opacity="0.5">{ }</text>
  <line x1="228" y1="308" x2="205" y2="315" stroke="#0a0a0a" stroke-width="5" stroke-linecap="round"/>
  <line x1="452" y1="308" x2="475" y2="315" stroke="#0a0a0a" stroke-width="5" stroke-linecap="round"/>

  <!-- Nose -->
  <ellipse cx="340" cy="352" rx="11" ry="7" fill="#b57d52" opacity="0.4"/>
  <path d="M330 358 Q340 365 350 358" stroke="#a06840" stroke-width="2" fill="none"/>

  <!-- Big grin -->
  <path d="M300 390 Q340 425 380 390" stroke="#5a2010" stroke-width="3" fill="none" stroke-linecap="round"/>
  <path d="M308 392 Q340 422 372 392 Q368 408 340 416 Q312 408 308 392 Z" fill="white"/>
  <line x1="327" y1="393" x2="325" y2="412" stroke="#e0e0e0" stroke-width="1.5"/>
  <line x1="340" y1="393" x2="340" y2="416" stroke="#e0e0e0" stroke-width="1.5"/>
  <line x1="353" y1="393" x2="355" y2="412" stroke="#e0e0e0" stroke-width="1.5"/>
  <ellipse cx="340" cy="418" rx="18" ry="10" fill="#e05060" opacity="0.85"/>

  <!-- Blush cheeks -->
  <ellipse cx="284" cy="372" rx="28" ry="16" fill="#ff6688" opacity="0.22"/>
  <ellipse cx="396" cy="372" rx="28" ry="16" fill="#ff6688" opacity="0.22"/>

  <!-- Sweat drop -->
  <path d="M455 245 Q462 255 455 268 Q448 255 455 245 Z" fill="#00cfff" opacity="0.6"/>

  <!-- Stars -->
  <text x="148" y="270" font-size="20" fill="#f5a623" opacity="0.7">&#9733;</text>
  <text x="500" y="258" font-size="16" fill="#f5a623" opacity="0.6">&#10022;</text>
  <text x="165" y="410" font-size="14" fill="#7c6dfa" opacity="0.6">&#10022;</text>
  <text x="498" y="400" font-size="18" fill="#1dffa0" opacity="0.5">&#9733;</text>

  <!-- Speech bubble -->
  <rect x="390" y="100" width="210" height="72" rx="14" fill="#162030" stroke="#00cfff" stroke-width="1.5"/>
  <path d="M415 172 L400 192 L435 172 Z" fill="#162030"/>
  <path d="M415 172 L400 192" stroke="#00cfff" stroke-width="1.5"/>
  <path d="M400 192 L435 172" stroke="#162030" stroke-width="3"/>
  <text x="495" y="128" text-anchor="middle" font-family="monospace" font-size="12" fill="#1dffa0">git push --force</text>
  <text x="495" y="146" text-anchor="middle" font-family="monospace" font-size="12" fill="#f5a623">  &amp;&amp; pray</text>
  <text x="495" y="164" text-anchor="middle" font-family="monospace" font-size="10" fill="#7c6dfa">  — every dev ever</text>

  <!-- Name tag -->
  <rect x="185" y="605" width="310" height="48" rx="8" fill="#1dffa0" opacity="0.1"/>
  <rect x="185" y="605" width="310" height="48" rx="8" fill="none" stroke="#1dffa0" stroke-width="1.5" opacity="0.7"/>
  <text x="340" y="624" text-anchor="middle" font-family="'Space Mono', monospace" font-size="13" fill="#1dffa0" font-weight="700">VIET H TRAN</text>
  <text x="340" y="643" text-anchor="middle" font-family="'Space Mono', monospace" font-size="10" fill="#00cfff">Full Stack Dev &amp; Engineer</text>
</svg>
